<?xml version="1.0" encoding="utf-8"?>
<!-- Generator: Adobe Illustrator 26.2.1, SVG Export Plug-In . SVG Version: 6.00 Build 0)  -->
<svg version="1.1" id="Calque_1" xmlns="http://www.w3.org/2000/svg" xmlns:xlink="http://www.w3.org/1999/xlink" x="0px" y="0px"
	 viewBox="0 0 330.7 167.6" style="enable-background:new 0 0 330.7 167.6;" xml:space="preserve">
<style type="text/css">
	.st0{fill-rule:evenodd;clip-rule:evenodd;fill:#149BD7;}
	.st1{fill:none;stroke:#009DD9;stroke-width:0.2162;stroke-miterlimit:22.926;}
	.st2{fill-rule:evenodd;clip-rule:evenodd;}
	.st3{fill:none;stroke:#1E191D;stroke-width:0.2162;stroke-miterlimit:22.926;}
</style>
<g>
	<path class="st0" d="M255.4,73.9l12,0c-23.3-29.1-6.3-65.8,30.7-60.6c-8.5-7-30.4-6.6-42.6,3.6L255.4,73.9z M327.3,1.6h-1.4
		c0.7,17.2-3.3,31-18.8,35.7c6.5-0.1,12.9,0.4,20.2-7.1L327.3,1.6z M327.3,38.7C302.7,50,286.7,42.2,288.2,27
		c-8.4,16.5,11.7,31.4,39.1,21.8V38.7z M327.3,73.9L327.3,59c-47.1,11.3-66.9-31.9-35.3-41c-28.4-0.6-32.3,38.8-3.1,55.9H327.3z
		 M255.2,1.6h60.5c6.2,16.3-0.4,29.7-18.4,30.9c18.5-11.2,12.4-26.6-10.4-29.7c-13.2-1.2-22.5-0.4-31.7,2.3V1.6z"/>
	<path class="st1" d="M255.4,73.9l12,0c-23.3-29.1-6.3-65.8,30.7-60.6c-8.5-7-30.4-6.6-42.6,3.6L255.4,73.9z M327.3,1.6h-1.4
		c0.7,17.2-3.3,31-18.8,35.7c6.5-0.1,12.9,0.4,20.2-7.1L327.3,1.6z M327.3,38.7C302.7,50,286.7,42.2,288.2,27
		c-8.4,16.5,11.7,31.4,39.1,21.8V38.7z M327.3,73.9L327.3,59c-47.1,11.3-66.9-31.9-35.3-41c-28.4-0.6-32.3,38.8-3.1,55.9H327.3z
		 M255.2,1.6h60.5c6.2,16.3-0.4,29.7-18.4,30.9c18.5-11.2,12.4-26.6-10.4-29.7c-13.2-1.2-22.5-0.4-31.7,2.3V1.6z"/>
	<path class="st2" d="M190.7,2.4h47.7v11.3h-17.9v59.9h-12.7V13.7h-17L190.7,2.4L190.7,2.4z M175.5,2.5h-37.8v71.1h37.6V62.3h-25.4
		v-18H174V32.5h-24.2V13.3h25.7L175.5,2.5z M2.2,53.3l13.3,0c0,2.9,1.2,4.5,3.2,6.6c1.6,1.7,3.8,2.6,6.5,2.6c2.9,0,5.2-0.8,6.9-2.4
		c1.7-1.6,2.5-3.8,2.5-6.6c0-4.4-2.6-8.6-9.4-10.5c-0.9-0.3-1.6-0.5-2.1-0.6c-5.8-1.7-10.4-3.7-13.3-6.7c-7.5-7.9-7.6-19.4,0.4-27.5
		c3.9-3.9,9-5.9,15.4-5.9c6,0,10.8,1.7,14.3,5.2c3.6,3.5,5.6,7.5,6,13.8H32.8c0-2.3-0.4-4-2.1-5.6c-1.4-1.3-3.3-2-5.6-2
		c-2.4,0-4.2,0.7-5.6,2.1c-1.4,1.4-2.1,3.7-2.1,6.1c0,1,0.1,1.9,0.4,2.7c0.3,0.8,0.7,1.5,1.3,2.1c1.4,1.4,4.4,2.7,8.9,3.9
		c2,0.5,3.6,0.9,4.7,1.3c5.1,1.6,8.8,3.9,11.2,6.9c2.4,3,3.6,6.8,3.6,11.5c0,7.1-2.1,12.8-6.4,17.1c-4.2,4.3-9.9,6.4-16.9,6.4
		c-6.6,0-11.9-2.1-16-6.2C4.4,63.5,2.3,60.2,2.2,53.3z M94.4,2.4c12.6,0,23.6,8.3,28.7,20.2h-12.5c-3.8-5.7-9.6-9.3-16-9.3
		c-11.3,0-20.5,11.1-20.5,24.6c0,13.6,9.2,24.6,20.5,24.6c6.2,0,11.7-3.3,15.4-8.5h12.7c-5.3,11.5-16,19.3-28.4,19.3
		c-17.6,0-31.9-15.9-31.9-35.5C62.5,18.3,76.8,2.4,94.4,2.4z"/>
	<path class="st3" d="M190.7,2.4h47.7v11.3h-17.9v59.9h-12.7V13.7h-17L190.7,2.4L190.7,2.4z M175.5,2.5h-37.8v71.1h37.6V62.3h-25.4
		v-18H174V32.5h-24.2V13.3h25.7L175.5,2.5z M2.2,53.3l13.3,0c0,2.9,1.2,4.5,3.2,6.6c1.6,1.7,3.8,2.6,6.5,2.6c2.9,0,5.2-0.8,6.9-2.4
		c1.7-1.6,2.5-3.8,2.5-6.6c0-4.4-2.6-8.6-9.4-10.5c-0.9-0.3-1.6-0.5-2.1-0.6c-5.8-1.7-10.4-3.7-13.3-6.7c-7.5-7.9-7.6-19.4,0.4-27.5
		c3.9-3.9,9-5.9,15.4-5.9c6,0,10.8,1.7,14.3,5.2c3.6,3.5,5.6,7.5,6,13.8H32.8c0-2.3-0.4-4-2.1-5.6c-1.4-1.3-3.3-2-5.6-2
		c-2.4,0-4.2,0.7-5.6,2.1c-1.4,1.4-2.1,3.7-2.1,6.1c0,1,0.1,1.9,0.4,2.7c0.3,0.8,0.7,1.5,1.3,2.1c1.4,1.4,4.4,2.7,8.9,3.9
		c2,0.5,3.6,0.9,4.7,1.3c5.1,1.6,8.8,3.9,11.2,6.9c2.4,3,3.6,6.8,3.6,11.5c0,7.1-2.1,12.8-6.4,17.1c-4.2,4.3-9.9,6.4-16.9,6.4
		c-6.6,0-11.9-2.1-16-6.2C4.4,63.5,2.3,60.2,2.2,53.3z M94.4,2.4c12.6,0,23.6,8.3,28.7,20.2h-12.5c-3.8-5.7-9.6-9.3-16-9.3
		c-11.3,0-20.5,11.1-20.5,24.6c0,13.6,9.2,24.6,20.5,24.6c6.2,0,11.7-3.3,15.4-8.5h12.7c-5.3,11.5-16,19.3-28.4,19.3
		c-17.6,0-31.9-15.9-31.9-35.5C62.5,18.3,76.8,2.4,94.4,2.4z"/>
	<polyline points="18.6,164.7 18.6,105.9 1.1,105.9 1.1,93.9 47.8,93.9 47.8,105.9 30.4,105.9 30.4,164.7 18.6,164.7 	"/>
	<path d="M57.2,93.9H69v38.3c0,6.1,0.1,10,0.4,11.8c0.5,2.9,1.7,5.2,3.6,7c1.9,1.7,4.5,2.6,7.8,2.6c3.4,0,5.9-0.8,7.6-2.5
		c1.7-1.7,2.7-3.7,3.1-6.1c0.4-2.4,0.5-6.4,0.5-12V93.9H104v37.2c0,8.5-0.3,14.5-1,18c-0.7,3.5-1.8,6.5-3.5,8.9
		c-1.7,2.4-4,4.4-6.9,5.8c-2.9,1.4-6.7,2.1-11.3,2.1c-5.6,0-9.9-0.8-12.8-2.3c-2.9-1.6-5.2-3.6-6.9-6.1c-1.7-2.5-2.8-5.1-3.3-7.8
		c-0.8-4.1-1.1-10-1.1-18L57.2,93.9"/>
	<polyline points="118.4,164.7 118.4,93.9 129.9,93.9 153.9,141.2 153.9,93.9 165,93.9 165,164.7 153.1,164.7 129.4,118.5 
		129.4,164.7 118.4,164.7 	"/>
	<rect x="178.9" y="93.9" width="11.9" height="70.8"/>
	<path d="M200.9,141.7l11.5-1.4c0.7,4.7,2.1,8.1,4.2,10.3c2.1,2.2,5,3.3,8.6,3.3c3.8,0,6.7-1,8.6-2.9c1.9-1.9,2.9-4.2,2.9-6.8
		c0-1.7-0.4-3.1-1.2-4.3c-0.8-1.2-2.2-2.2-4.3-3.1c-1.4-0.6-4.6-1.6-9.5-3.1c-6.4-1.9-10.8-4.2-13.4-7c-3.6-3.9-5.4-8.6-5.4-14.2
		c0-3.6,0.9-7,2.5-10.1c1.7-3.1,4.1-5.5,7.3-7.2c3.2-1.6,7-2.5,11.6-2.5c7.3,0,12.9,2,16.6,5.8c3.7,3.9,5.7,9.1,5.9,15.6l-11.8,0.7
		c-0.5-3.7-1.6-6.3-3.3-7.9c-1.7-1.6-4.2-2.4-7.5-2.4c-3.4,0-6.1,0.8-8.1,2.5c-1.3,1.1-1.9,2.6-1.9,4.4c0,1.7,0.6,3.1,1.8,4.3
		c1.5,1.5,5.1,3.1,10.9,4.7c5.8,1.6,10,3.3,12.8,5.1c2.7,1.8,4.9,4.1,6.5,7.2c1.6,3,2.3,6.8,2.3,11.3c0,4.1-0.9,7.8-2.8,11.4
		c-1.9,3.6-4.5,6.2-7.9,7.9c-3.4,1.7-7.7,2.6-12.8,2.6c-7.4,0-13.1-2.1-17.1-6.2C204,155.6,201.7,149.6,200.9,141.7"/>
	<rect x="260" y="93.9" width="11.9" height="70.8"/>
	<polyline points="285,164.7 285,93.9 328.5,93.9 328.5,105.9 296.8,105.9 296.8,121.6 326.3,121.6 326.3,133.5 296.8,133.5 
		296.8,152.8 329.6,152.8 329.6,164.7 285,164.7 	"/>
</g>
</svg>
